<svg width="208" height="38" viewBox="0 0 208 38" fill="none" xmlns="http://www.w3.org/2000/svg">
<path d="M40 15.7807C40 24.4962 31.0457 22.8821 20 22.8821C8.9543 22.8821 0 24.4962 0 15.7807C0 7.06528 8.9543 0 20 0C31.0457 0 40 7.06528 40 15.7807Z" fill="#CED7E4"/>
<rect x="2" y="26" width="36" height="12" rx="6" fill="#CED7E4"/>
<path d="M53.62 28V16.18H49.52V14H60.4V16.18H56.3V28H53.62ZM62.3641 28V13.6H65.0641V19.5C65.3974 18.98 65.8441 18.5667 66.4041 18.26C66.9641 17.94 67.6107 17.78 68.3441 17.78C69.1707 17.78 69.8707 17.96 70.4441 18.32C71.0174 18.6667 71.4507 19.18 71.7441 19.86C72.0507 20.5267 72.2041 21.3533 72.2041 22.34V28H69.5241V22.6C69.5241 21.7867 69.3574 21.16 69.0241 20.72C68.6907 20.28 68.1641 20.06 67.4441 20.06C67.0041 20.06 66.5974 20.1667 66.2241 20.38C65.8641 20.5933 65.5774 20.9067 65.3641 21.32C65.1641 21.72 65.0641 22.2133 65.0641 22.8V28H62.3641ZM79.6787 28.24C78.6654 28.24 77.7654 28.0267 76.9787 27.6C76.2054 27.16 75.5987 26.5533 75.1587 25.78C74.7187 25.0067 74.4987 24.1133 74.4987 23.1C74.4987 22.06 74.7121 21.14 75.1387 20.34C75.5787 19.54 76.1854 18.9133 76.9587 18.46C77.7454 18.0067 78.6521 17.78 79.6787 17.78C80.6787 17.78 81.5521 18 82.2987 18.44C83.0454 18.8667 83.6321 19.4533 84.0587 20.2C84.4854 20.9333 84.6987 21.7733 84.6987 22.72C84.6987 22.8533 84.6921 23 84.6787 23.16C84.6787 23.32 84.6654 23.4933 84.6388 23.68H76.4387V22.02H81.9587C81.9187 21.3933 81.6854 20.8933 81.2587 20.52C80.8454 20.1467 80.3254 19.96 79.6987 19.96C79.2321 19.96 78.8054 20.0667 78.4187 20.28C78.0321 20.48 77.7254 20.7933 77.4987 21.22C77.2721 21.6333 77.1587 22.16 77.1587 22.8V23.38C77.1587 23.9133 77.2654 24.38 77.4787 24.78C77.6921 25.18 77.9854 25.4933 78.3587 25.72C78.7454 25.9333 79.1787 26.04 79.6587 26.04C80.1521 26.04 80.5654 25.9333 80.8987 25.72C81.2321 25.5067 81.4787 25.22 81.6387 24.86H84.3987C84.2121 25.5 83.8987 26.0733 83.4587 26.58C83.0187 27.0867 82.4787 27.4933 81.8387 27.8C81.1987 28.0933 80.4787 28.24 79.6787 28.24ZM87.06 28V14H92.8C93.7733 14 94.5867 14.1533 95.24 14.46C95.9067 14.7667 96.4133 15.1933 96.76 15.74C97.1067 16.2733 97.28 16.8933 97.28 17.6C97.28 18.3067 97.1267 18.9 96.82 19.38C96.5133 19.86 96.1067 20.2333 95.6 20.5C95.1067 20.7533 94.56 20.9 93.96 20.94L94.28 20.72C94.92 20.7467 95.4867 20.92 95.98 21.24C96.4867 21.5467 96.88 21.96 97.16 22.48C97.4533 23 97.6 23.5667 97.6 24.18C97.6 24.9267 97.42 25.5867 97.06 26.16C96.7 26.7333 96.1733 27.1867 95.48 27.52C94.8 27.84 93.9667 28 92.98 28H87.06ZM89.76 25.8H92.56C93.2933 25.8 93.86 25.6333 94.26 25.3C94.66 24.9667 94.86 24.4867 94.86 23.86C94.86 23.2333 94.6533 22.7467 94.24 22.4C93.8267 22.04 93.2533 21.86 92.52 21.86H89.76V25.8ZM89.76 19.84H92.36C93.0667 19.84 93.6 19.68 93.96 19.36C94.3333 19.04 94.52 18.5867 94.52 18C94.52 17.4267 94.3333 16.98 93.96 16.66C93.6 16.3267 93.06 16.16 92.34 16.16H89.76V19.84ZM99.8648 28V13.6H102.565V28H99.8648ZM108.747 28.24C107.907 28.24 107.214 28.1067 106.667 27.84C106.121 27.56 105.714 27.1933 105.447 26.74C105.181 26.2867 105.047 25.7867 105.047 25.24C105.047 24.6267 105.201 24.0867 105.507 23.62C105.827 23.1533 106.307 22.7933 106.947 22.54C107.587 22.2733 108.387 22.14 109.347 22.14H111.847C111.847 21.6467 111.774 21.2467 111.627 20.94C111.494 20.62 111.287 20.38 111.007 20.22C110.727 20.06 110.361 19.98 109.907 19.98C109.401 19.98 108.961 20.0933 108.587 20.32C108.227 20.5467 108.007 20.8867 107.927 21.34H105.307C105.374 20.6067 105.614 19.98 106.027 19.46C106.441 18.9267 106.981 18.5133 107.647 18.22C108.327 17.9267 109.087 17.78 109.927 17.78C110.874 17.78 111.687 17.94 112.367 18.26C113.061 18.5667 113.594 19.0267 113.967 19.64C114.354 20.24 114.547 20.9733 114.547 21.84V28H112.267L111.967 26.46C111.821 26.7267 111.647 26.9667 111.447 27.18C111.247 27.3933 111.014 27.58 110.747 27.74C110.481 27.9 110.181 28.02 109.847 28.1C109.514 28.1933 109.147 28.24 108.747 28.24ZM109.387 26.16C109.734 26.16 110.047 26.1 110.327 25.98C110.607 25.8467 110.841 25.6733 111.027 25.46C111.227 25.2333 111.381 24.98 111.487 24.7C111.607 24.42 111.687 24.12 111.727 23.8V23.78H109.647C109.247 23.78 108.914 23.8333 108.647 23.94C108.381 24.0467 108.187 24.1933 108.067 24.38C107.947 24.5533 107.887 24.76 107.887 25C107.887 25.2533 107.947 25.4667 108.067 25.64C108.201 25.8 108.374 25.9267 108.587 26.02C108.814 26.1133 109.081 26.16 109.387 26.16ZM117.157 28V18.02H119.537L119.737 19.68C120.057 19.1067 120.497 18.6467 121.057 18.3C121.63 17.9533 122.317 17.78 123.117 17.78C123.944 17.78 124.644 17.9533 125.217 18.3C125.79 18.6467 126.23 19.16 126.537 19.84C126.844 20.52 126.997 21.3533 126.997 22.34V28H124.297V22.58C124.297 21.7667 124.13 21.1467 123.797 20.72C123.464 20.28 122.937 20.06 122.217 20.06C121.764 20.06 121.357 20.1667 120.997 20.38C120.65 20.5933 120.37 20.9067 120.157 21.32C119.957 21.72 119.857 22.2067 119.857 22.78V28H117.157ZM136.232 28L131.912 22.52L135.752 18.02H138.952L133.992 23.64V21.5L139.592 28H136.232ZM129.612 28V13.6H132.312V28H129.612ZM144.644 28V16.18H140.544V14H151.424V16.18H147.324V28H144.644ZM153.388 28V13.6H156.088V19.5C156.422 18.98 156.868 18.5667 157.428 18.26C157.988 17.94 158.635 17.78 159.368 17.78C160.195 17.78 160.895 17.96 161.468 18.32C162.042 18.6667 162.475 19.18 162.768 19.86C163.075 20.5267 163.228 21.3533 163.228 22.34V28H160.548V22.6C160.548 21.7867 160.382 21.16 160.048 20.72C159.715 20.28 159.188 20.06 158.468 20.06C158.028 20.06 157.622 20.1667 157.248 20.38C156.888 20.5933 156.602 20.9067 156.388 21.32C156.188 21.72 156.088 22.2133 156.088 22.8V28H153.388ZM170.703 28.24C169.69 28.24 168.79 28.0267 168.003 27.6C167.23 27.16 166.623 26.5533 166.183 25.78C165.743 25.0067 165.523 24.1133 165.523 23.1C165.523 22.06 165.736 21.14 166.163 20.34C166.603 19.54 167.21 18.9133 167.983 18.46C168.77 18.0067 169.676 17.78 170.703 17.78C171.703 17.78 172.576 18 173.323 18.44C174.07 18.8667 174.656 19.4533 175.083 20.2C175.51 20.9333 175.723 21.7733 175.723 22.72C175.723 22.8533 175.716 23 175.703 23.16C175.703 23.32 175.69 23.4933 175.663 23.68H167.463V22.02H172.983C172.943 21.3933 172.71 20.8933 172.283 20.52C171.87 20.1467 171.35 19.96 170.723 19.96C170.256 19.96 169.83 20.0667 169.443 20.28C169.056 20.48 168.75 20.7933 168.523 21.22C168.296 21.6333 168.183 22.16 168.183 22.8V23.38C168.183 23.9133 168.29 24.38 168.503 24.78C168.716 25.18 169.01 25.4933 169.383 25.72C169.77 25.9333 170.203 26.04 170.683 26.04C171.176 26.04 171.59 25.9333 171.923 25.72C172.256 25.5067 172.503 25.22 172.663 24.86H175.423C175.236 25.5 174.923 26.0733 174.483 26.58C174.043 27.0867 173.503 27.4933 172.863 27.8C172.223 28.0933 171.503 28.24 170.703 28.24ZM178.024 28V18.02H180.404L180.624 19.36C180.944 18.8667 181.364 18.48 181.884 18.2C182.418 17.92 183.031 17.78 183.724 17.78C184.231 17.78 184.684 17.8467 185.084 17.98C185.498 18.1 185.858 18.2933 186.164 18.56C186.484 18.8133 186.744 19.1333 186.944 19.52C187.318 18.9733 187.804 18.5467 188.404 18.24C189.018 17.9333 189.678 17.78 190.384 17.78C191.264 17.78 191.998 17.96 192.584 18.32C193.184 18.6667 193.638 19.18 193.944 19.86C194.251 20.5267 194.404 21.3533 194.404 22.34V28H191.724V22.58C191.724 21.7667 191.564 21.1467 191.244 20.72C190.924 20.28 190.438 20.06 189.784 20.06C189.344 20.06 188.958 20.1667 188.624 20.38C188.291 20.5933 188.031 20.9067 187.844 21.32C187.658 21.72 187.564 22.2067 187.564 22.78V28H184.884V22.58C184.884 21.7667 184.724 21.1467 184.404 20.72C184.084 20.28 183.584 20.06 182.904 20.06C182.478 20.06 182.098 20.1667 181.764 20.38C181.444 20.5933 181.191 20.9067 181.004 21.32C180.818 21.72 180.724 22.2067 180.724 22.78V28H178.024ZM201.882 28.24C200.869 28.24 199.969 28.0267 199.182 27.6C198.409 27.16 197.802 26.5533 197.362 25.78C196.922 25.0067 196.702 24.1133 196.702 23.1C196.702 22.06 196.915 21.14 197.342 20.34C197.782 19.54 198.389 18.9133 199.162 18.46C199.949 18.0067 200.855 17.78 201.882 17.78C202.882 17.78 203.755 18 204.502 18.44C205.249 18.8667 205.835 19.4533 206.262 20.2C206.689 20.9333 206.902 21.7733 206.902 22.72C206.902 22.8533 206.895 23 206.882 23.16C206.882 23.32 206.869 23.4933 206.842 23.68H198.642V22.02H204.162C204.122 21.3933 203.889 20.8933 203.462 20.52C203.049 20.1467 202.529 19.96 201.902 19.96C201.435 19.96 201.009 20.0667 200.622 20.28C200.235 20.48 199.929 20.7933 199.702 21.22C199.475 21.6333 199.362 22.16 199.362 22.8V23.38C199.362 23.9133 199.469 24.38 199.682 24.78C199.895 25.18 200.189 25.4933 200.562 25.72C200.949 25.9333 201.382 26.04 201.862 26.04C202.355 26.04 202.769 25.9333 203.102 25.72C203.435 25.5067 203.682 25.22 203.842 24.86H206.602C206.415 25.5 206.102 26.0733 205.662 26.58C205.222 27.0867 204.682 27.4933 204.042 27.8C203.402 28.0933 202.682 28.24 201.882 28.24Z" fill="#7B95B7"/>
</svg>
